<svg width="378" height="84" viewBox="0 0 378 84" fill="none" xmlns="http://www.w3.org/2000/svg">
<rect width="378" height="84" rx="14" fill="url(#paint0_linear_512_2)"/>
<path d="M123.085 56.91C121.568 56.91 120.483 56.4783 119.83 55.615C119.177 54.7283 118.85 53.4333 118.85 51.73C118.85 50.0267 119.398 46.1067 120.495 39.97H119.935C118.512 41.8367 117.333 44.065 116.4 46.655C115.467 49.245 114.895 51.5783 114.685 53.655C113.542 54.7283 112.223 55.265 110.73 55.265C110.123 55.265 109.587 55.055 109.12 54.635C108.677 54.1917 108.233 53.4333 107.79 52.36C106.927 50.19 106.308 46.06 105.935 39.97H105.375C104.232 44.9867 103.66 48.5217 103.66 50.575C103.66 52.6283 104.01 54.215 104.71 55.335C103.31 56.385 101.852 56.91 100.335 56.91C98.8183 56.91 97.7333 56.4783 97.08 55.615C96.4267 54.7283 96.1 53.4217 96.1 51.695C96.1 49.945 96.835 45.01 98.305 36.89L96.45 33.145C99.0867 31.4417 101.49 30.59 103.66 30.59C104.617 30.59 105.422 30.695 106.075 30.905C106.752 31.0917 107.393 31.465 108 32.025C108.63 32.585 109.143 33.3667 109.54 34.37C110.45 36.6333 111.103 39.935 111.5 44.275H111.92C113.133 40.705 114.813 37.6367 116.96 35.07C118.127 33.6933 119.515 32.6083 121.125 31.815C122.758 31.0217 124.52 30.625 126.41 30.625C128.207 30.625 129.105 31.71 129.105 33.88C129.105 34.6033 128.65 37.2983 127.74 41.965C126.853 46.6083 126.41 49.3733 126.41 50.26C126.41 52.5233 126.76 54.215 127.46 55.335C126.06 56.385 124.602 56.91 123.085 56.91ZM141.885 55.3C140.788 55.6967 139.691 55.895 138.595 55.895C137.498 55.895 136.576 55.5683 135.83 54.915C135.083 54.2617 134.651 53.375 134.535 52.255C134.418 51.135 134.313 49.5133 134.22 47.39C134.126 45.2433 134.033 43.7267 133.94 42.84C133.636 39.8767 132.703 37.765 131.14 36.505C132.236 35.5017 133.613 35 135.27 35C136.18 35 136.973 35.245 137.65 35.735C138.326 36.2017 138.863 36.8317 139.26 37.625C139.68 38.395 140.018 39.3983 140.275 40.635C140.671 42.6883 140.87 45.465 140.87 48.965C140.87 49.8283 140.835 50.8433 140.765 52.01H142.795C145.198 45.5233 146.4 41.1017 146.4 38.745C146.4 37.9517 146.225 37.205 145.875 36.505C147.508 35.5017 148.931 35 150.145 35C152.408 35 153.54 36.3067 153.54 38.92C153.54 40.9967 152.583 44.6483 150.67 49.875C150.32 50.8317 150.121 51.3917 150.075 51.555C147.111 60.0017 142.9 64.225 137.44 64.225C135.783 64.225 134.418 63.8633 133.345 63.14C132.271 62.44 131.735 61.5067 131.735 60.34C131.735 59.1967 132.166 57.995 133.03 56.735C134.15 58.3217 135.55 59.115 137.23 59.115C138.186 59.115 139.073 58.8 139.89 58.17C140.73 57.54 141.395 56.5833 141.885 55.3ZM155.056 36.68C155.056 34.79 155.546 33.3667 156.526 32.41C157.506 31.4533 158.672 30.975 160.026 30.975C161.402 30.975 163.269 31.2083 165.626 31.675C167.982 32.1417 169.756 32.3867 170.946 32.41C172.929 32.0367 174.819 31.5817 176.616 31.045C176.802 31.6517 176.896 32.41 176.896 33.32C176.896 35.21 176.347 36.6333 175.251 37.59C174.177 38.5467 172.801 39.025 171.121 39.025C170.701 39.025 170.141 39.0017 169.441 38.955C168.157 45.6983 167.516 49.4667 167.516 50.26C167.516 52.5233 167.866 54.215 168.566 55.335C167.166 56.385 165.707 56.91 164.191 56.91C162.674 56.91 161.589 56.4783 160.936 55.615C160.282 54.7283 159.956 53.4217 159.956 51.695C159.956 49.945 160.632 45.3017 161.986 37.765C159.349 38.115 157.132 38.5117 155.336 38.955C155.149 38.3717 155.056 37.6133 155.056 36.68ZM188.276 51.695L187.926 51.52C187.296 53.2 186.386 54.5183 185.196 55.475C184.029 56.4083 182.723 56.875 181.276 56.875C179.293 56.875 177.706 56.1283 176.516 54.635C175.326 53.1417 174.731 51.1467 174.731 48.65C174.731 44.7767 176.026 41.5333 178.616 38.92C181.229 36.3067 184.473 35 188.346 35C189.349 35 190.271 35.0933 191.111 35.28C191.251 35.9333 191.333 36.505 191.356 36.995C192.523 36.2483 193.724 35.875 194.961 35.875C196.664 35.875 197.516 36.7967 197.516 38.64C197.516 39.2933 197.143 41.265 196.396 44.555C195.673 47.845 195.311 50.2833 195.311 51.87C195.311 53.4567 195.673 54.5533 196.396 55.16C195.089 56.3033 193.724 56.875 192.301 56.875C190.901 56.875 189.874 56.455 189.221 55.615C188.591 54.775 188.276 53.4683 188.276 51.695ZM181.311 46.935C181.311 48.0783 181.544 48.965 182.011 49.595C182.501 50.2017 183.189 50.505 184.076 50.505C184.963 50.505 185.838 50.1783 186.701 49.525C187.564 48.8717 188.288 47.9733 188.871 46.83C189.081 44.4733 189.536 41.685 190.236 38.465C187.879 38.465 185.803 39.3167 184.006 41.02C182.209 42.7233 181.311 44.695 181.311 46.935ZM212.193 39.655C211.329 39.9117 210.641 40.285 210.128 40.775C209.614 41.2417 209.159 41.9183 208.763 42.805C212.706 43.3883 215.483 44.2283 217.093 45.325C218.703 46.4217 219.508 47.985 219.508 50.015C219.508 51.2983 219.146 52.4183 218.423 53.375C217.699 54.3083 216.789 55.02 215.693 55.51C213.546 56.42 211.434 56.875 209.358 56.875C203.454 56.875 200.503 55.6033 200.503 53.06C200.503 51.7767 201.074 50.4933 202.218 49.21C202.801 50.0267 203.676 50.7267 204.843 51.31C206.033 51.8933 207.188 52.185 208.308 52.185C210.244 52.185 211.411 51.3333 211.808 49.63C208.261 49.21 205.694 48.4167 204.108 47.25C202.521 46.0833 201.728 44.4383 201.728 42.315C201.728 40.635 202.276 39.2233 203.373 38.08C204.493 36.9367 205.869 36.1433 207.503 35.7C209.159 35.2333 211.014 35 213.068 35C215.144 35 216.848 35.3967 218.178 36.19C219.531 36.96 220.208 37.905 220.208 39.025C220.208 40.145 219.811 41.0083 219.018 41.615C218.248 42.2217 217.396 42.525 216.463 42.525C215.553 42.525 214.713 42.28 213.943 41.79C213.196 41.3 212.613 40.5883 212.193 39.655ZM226.633 34.23L224.673 31.43C227.589 29.7267 229.888 28.875 231.568 28.875C232.524 28.875 233.201 29.0733 233.598 29.47C233.994 29.8433 234.193 30.485 234.193 31.395C234.193 32.2817 234.041 33.53 233.738 35.14C233.458 36.75 233.073 38.6517 232.583 40.845C232.116 43.0383 231.778 44.8 231.568 46.13L233.773 44.17C233.983 43.9833 234.321 43.6917 234.788 43.295C235.278 42.875 235.616 42.5717 235.803 42.385C236.013 42.1983 236.293 41.9417 236.643 41.615C236.993 41.265 237.249 40.9733 237.413 40.74C237.576 40.5067 237.763 40.2383 237.973 39.935C238.299 39.4217 238.463 38.85 238.463 38.22C238.463 37.5667 238.369 36.995 238.183 36.505C239.839 35.5017 241.403 35 242.873 35C243.853 35 244.634 35.315 245.218 35.945C245.801 36.5517 246.093 37.4383 246.093 38.605C246.093 39.7717 245.556 40.95 244.483 42.14C243.433 43.3067 242.126 44.3333 240.563 45.22C241.286 47.6233 242.219 49.8283 243.363 51.835C244.506 53.8417 245.463 55.0433 246.233 55.44C245.299 56.3967 243.853 56.875 241.893 56.875C240.446 56.875 239.221 56.385 238.218 55.405C237.238 54.425 236.363 52.815 235.593 50.575L234.718 48.09L231.113 49.875C231.089 50.1317 231.078 50.5167 231.078 51.03C231.078 52.9667 231.439 54.3433 232.163 55.16C230.529 56.3033 229.048 56.875 227.718 56.875C226.388 56.875 225.408 56.4433 224.778 55.58C224.171 54.6933 223.868 53.48 223.868 51.94C223.868 50.4 224.299 47.25 225.163 42.49C226.026 37.73 226.516 34.9767 226.633 34.23ZM260.01 39.655C259.147 39.9117 258.458 40.285 257.945 40.775C257.432 41.2417 256.977 41.9183 256.58 42.805C260.523 43.3883 263.3 44.2283 264.91 45.325C266.52 46.4217 267.325 47.985 267.325 50.015C267.325 51.2983 266.963 52.4183 266.24 53.375C265.517 54.3083 264.607 55.02 263.51 55.51C261.363 56.42 259.252 56.875 257.175 56.875C251.272 56.875 248.32 55.6033 248.32 53.06C248.32 51.7767 248.892 50.4933 250.035 49.21C250.618 50.0267 251.493 50.7267 252.66 51.31C253.85 51.8933 255.005 52.185 256.125 52.185C258.062 52.185 259.228 51.3333 259.625 49.63C256.078 49.21 253.512 48.4167 251.925 47.25C250.338 46.0833 249.545 44.4383 249.545 42.315C249.545 40.635 250.093 39.2233 251.19 38.08C252.31 36.9367 253.687 36.1433 255.32 35.7C256.977 35.2333 258.832 35 260.885 35C262.962 35 264.665 35.3967 265.995 36.19C267.348 36.96 268.025 37.905 268.025 39.025C268.025 40.145 267.628 41.0083 266.835 41.615C266.065 42.2217 265.213 42.525 264.28 42.525C263.37 42.525 262.53 42.28 261.76 41.79C261.013 41.3 260.43 40.5883 260.01 39.655Z" fill="white"/>
<defs>
<linearGradient id="paint0_linear_512_2" x1="189" y1="0" x2="189" y2="84" gradientUnits="userSpaceOnUse">
<stop offset="0.234375" stop-color="#065F46"/>
<stop offset="0.572917" stop-color="#34D399" stop-opacity="0.995577"/>
<stop offset="0.838542" stop-color="#065F46" stop-opacity="0.995509"/>
<stop offset="0.9998" stop-color="#065F46" stop-opacity="0.99"/>
<stop offset="0.9999" stop-color="#065F46"/>
<stop offset="1" stop-color="#065F46" stop-opacity="0"/>
</linearGradient>
</defs>
</svg>
